<svg width="27" height="27" viewBox="0 0 27 27" fill="none" xmlns="http://www.w3.org/2000/svg">
<mask id="path-1-1_2590_4663" fill="white">
<path d="M0.5 1.56563C0.5 0.847655 1.0824 0.262234 1.79947 0.298118C4.76987 0.44676 7.69611 1.10415 10.4498 2.24476C13.6042 3.55138 16.4705 5.46653 18.8848 7.88085C21.2991 10.2952 23.2142 13.1614 24.5209 16.3159C25.6615 19.0695 26.3189 21.9958 26.4675 24.9662C26.5034 25.6832 25.918 26.2656 25.2 26.2656C24.482 26.2656 23.9038 25.6831 23.8639 24.9663C23.7177 22.3375 23.1287 19.749 22.1188 17.3108C20.9428 14.4718 19.2192 11.8922 17.0463 9.71933C14.8734 7.54644 12.2938 5.8228 9.45479 4.64684C7.01663 3.63692 4.42813 3.04792 1.79936 2.90173C1.08249 2.86186 0.5 2.2836 0.5 1.56563Z"/>
</mask>
<path d="M0.5 1.56563C0.5 0.847655 1.0824 0.262234 1.79947 0.298118C4.76987 0.44676 7.69611 1.10415 10.4498 2.24476C13.6042 3.55138 16.4705 5.46653 18.8848 7.88085C21.2991 10.2952 23.2142 13.1614 24.5209 16.3159C25.6615 19.0695 26.3189 21.9958 26.4675 24.9662C26.5034 25.6832 25.918 26.2656 25.2 26.2656C24.482 26.2656 23.9038 25.6831 23.8639 24.9663C23.7177 22.3375 23.1287 19.749 22.1188 17.3108C20.9428 14.4718 19.2192 11.8922 17.0463 9.71933C14.8734 7.54644 12.2938 5.8228 9.45479 4.64684C7.01663 3.63692 4.42813 3.04792 1.79936 2.90173C1.08249 2.86186 0.5 2.2836 0.5 1.56563Z" fill="#333333" stroke="white" stroke-width="0.4" mask="url(#path-1-inside-1_2590_4663)"/>
</svg>
