<svg width="27" height="27" viewBox="0 0 27 27" fill="none" xmlns="http://www.w3.org/2000/svg">
<mask id="path-1-inside-1_2590_4667" fill="white">
<rect x="0.5" y="0.265625" width="10" height="10" rx="1"/>
</mask>
<rect x="0.5" y="0.265625" width="10" height="10" rx="1" stroke="#333333" stroke-width="4" mask="url(#path-1-inside-1_2590_4667)"/>
<mask id="path-2-inside-2_2590_4667" fill="white">
<rect x="8.5" y="0.265625" width="10" height="10" rx="1"/>
</mask>
<rect x="8.5" y="0.265625" width="10" height="10" rx="1" stroke="#333333" stroke-width="4" mask="url(#path-2-inside-2_2590_4667)"/>
<mask id="path-3-inside-3_2590_4667" fill="white">
<rect x="16.5" y="0.265625" width="10" height="10" rx="1"/>
</mask>
<rect x="16.5" y="0.265625" width="10" height="10" rx="1" stroke="#333333" stroke-width="4" mask="url(#path-3-inside-3_2590_4667)"/>
<mask id="path-4-inside-4_2590_4667" fill="white">
<rect x="0.5" y="8.26562" width="10" height="10" rx="1"/>
</mask>
<rect x="0.5" y="8.26562" width="10" height="10" rx="1" stroke="#333333" stroke-width="4" mask="url(#path-4-inside-4_2590_4667)"/>
<mask id="path-5-inside-5_2590_4667" fill="white">
<rect x="8.5" y="8.26562" width="10" height="10" rx="1"/>
</mask>
<rect x="8.5" y="8.26562" width="10" height="10" rx="1" stroke="#333333" stroke-width="4" mask="url(#path-5-inside-5_2590_4667)"/>
<mask id="path-6-inside-6_2590_4667" fill="white">
<rect x="16.5" y="8.26562" width="10" height="10" rx="1"/>
</mask>
<rect x="16.5" y="8.26562" width="10" height="10" rx="1" stroke="#333333" stroke-width="4" mask="url(#path-6-inside-6_2590_4667)"/>
<mask id="path-7-inside-7_2590_4667" fill="white">
<rect x="0.5" y="16.2656" width="10" height="10" rx="1"/>
</mask>
<rect x="0.5" y="16.2656" width="10" height="10" rx="1" stroke="#333333" stroke-width="4" mask="url(#path-7-inside-7_2590_4667)"/>
<mask id="path-8-inside-8_2590_4667" fill="white">
<rect x="8.5" y="16.2656" width="10" height="10" rx="1"/>
</mask>
<rect x="8.5" y="16.2656" width="10" height="10" rx="1" stroke="#333333" stroke-width="4" mask="url(#path-8-inside-8_2590_4667)"/>
<mask id="path-9-inside-9_2590_4667" fill="white">
<rect x="16.5" y="16.2656" width="10" height="10" rx="1"/>
</mask>
<rect x="16.5" y="16.2656" width="10" height="10" rx="1" stroke="#333333" stroke-width="4" mask="url(#path-9-inside-9_2590_4667)"/>
</svg>
