<svg width="28" height="34" viewBox="0 0 28 34" fill="none" xmlns="http://www.w3.org/2000/svg">
<path fill-rule="evenodd" clip-rule="evenodd" d="M5.86083 6.46557C5.86083 3.29293 8.4482 0.705566 11.6208 0.705566C14.5493 0.705566 16.9749 2.9112 17.3316 5.74557C17.3316 5.74557 17.4151 6.18254 17.4143 6.46557C17.4135 6.74878 17.3274 7.18557 17.3274 7.18557C17.0988 9.00305 16.02 10.5501 14.5008 11.4324V13.3913C14.9315 13.134 15.4061 12.9456 15.9408 12.9456C16.9962 12.9456 17.8861 13.5497 18.3877 14.4038C18.8949 13.9598 19.539 13.6656 20.2608 13.6656C21.5122 13.6656 22.5737 14.4824 22.9679 15.6048C23.4292 15.2901 23.9843 15.1056 24.5808 15.1056C26.1629 15.1056 27.4608 16.4035 27.4608 17.9856V27.347C27.4608 30.9171 24.5509 33.8256 20.9808 33.8256L15.7425 33.8242C13.261 33.8234 10.8809 32.8382 9.12614 31.0834L0.94458 22.9018C-0.174235 21.783 -0.174235 19.9467 0.94458 18.8279C2.0634 17.7091 3.89967 17.7091 5.01849 18.8279L8.74083 22.5517V11.4324C7.02448 10.4353 5.86083 8.58839 5.86083 6.46557ZM15.9366 6.38119C15.8915 4.02652 13.9867 2.14557 11.6208 2.14557C9.22643 2.14557 7.30083 4.07116 7.30083 6.46557C7.30083 7.74718 7.85848 8.88929 8.74083 9.67744V6.46557C8.74083 4.88349 10.0388 3.58557 11.6208 3.58557C13.2029 3.58557 14.5008 4.88349 14.5008 6.46557V9.67603C15.3637 8.90504 15.9114 7.79533 15.9352 6.54853V6.54572C15.9294 6.491 15.9299 6.4358 15.9366 6.38119ZM13.0608 6.46557C13.0608 5.66157 12.4248 5.02557 11.6208 5.02557C10.8168 5.02557 10.1808 5.66157 10.1808 6.46557V11.0246V24.2898C10.1827 24.4405 10.1372 24.5881 10.0508 24.7116C9.9643 24.8352 9.84125 24.9284 9.69896 24.9783C9.55666 25.0282 9.4023 25.0321 9.25765 24.9896C9.113 24.947 8.98535 24.8601 8.89271 24.7412L3.99895 19.8474C3.43009 19.2786 2.53157 19.2786 1.96271 19.8474C1.39384 20.4163 1.39384 21.3148 1.96271 21.8837L10.1443 30.0653C11.6295 31.5505 13.642 32.3835 15.7425 32.3842L20.9808 32.3856C23.7727 32.3856 26.0208 30.1388 26.0208 27.347V17.9856C26.0208 17.1816 25.3848 16.5456 24.5808 16.5456C23.7768 16.5456 23.1408 17.1816 23.1408 17.9856V18.7056C23.1422 18.801 23.1246 18.8957 23.089 18.9842C23.0534 19.0728 23.0006 19.1534 22.9336 19.2213C22.8666 19.2892 22.7868 19.3432 22.6987 19.38C22.6107 19.4169 22.5162 19.4358 22.4208 19.4358C22.3254 19.4358 22.2309 19.4169 22.1429 19.38C22.0549 19.3432 21.9751 19.2892 21.9081 19.2213C21.8411 19.1534 21.7883 19.0728 21.7527 18.9842C21.7171 18.8957 21.6995 18.801 21.7008 18.7056V17.9856V16.5456C21.7008 15.7416 21.0648 15.1056 20.2608 15.1056C19.4568 15.1056 18.8208 15.7416 18.8208 16.5456V17.2656C18.821 17.2825 18.8205 17.2993 18.8194 17.3162C18.8183 17.3402 18.8159 17.3641 18.8124 17.3879C18.8049 17.4354 18.7926 17.4821 18.7758 17.5271C18.759 17.5718 18.7378 17.6146 18.7125 17.6551C18.6874 17.6959 18.6581 17.734 18.6254 17.769C18.6089 17.7867 18.5915 17.8036 18.5733 17.8196C18.5549 17.8351 18.5356 17.8497 18.5157 17.8632C18.4962 17.8773 18.476 17.8905 18.4552 17.9026C18.3716 17.9499 18.2793 17.9801 18.1838 17.9912C18.1362 17.9964 18.0881 17.9969 18.0404 17.9926C18.0163 17.991 17.9924 17.9882 17.9686 17.9842C17.9449 17.9797 17.9215 17.9741 17.8983 17.9673C17.8521 17.9535 17.8073 17.9352 17.7647 17.9124C17.6799 17.8677 17.6048 17.8065 17.544 17.7324C17.4675 17.639 17.4157 17.5277 17.3935 17.409C17.389 17.3853 17.3857 17.3613 17.3836 17.3373C17.3815 17.3134 17.3806 17.2895 17.3808 17.2656V16.5456V15.8256C17.3808 15.0216 16.7448 14.3856 15.9408 14.3856C15.1368 14.3856 14.5008 15.0216 14.5008 15.8256V17.2656C14.501 17.2825 14.5005 17.2993 14.4994 17.3162C14.4983 17.3402 14.4959 17.3641 14.4924 17.3879C14.4812 17.4592 14.4594 17.5284 14.4277 17.5932C14.417 17.6144 14.4053 17.6351 14.3925 17.6551C14.3799 17.6754 14.3663 17.6952 14.3518 17.7142C14.3372 17.7332 14.3217 17.7515 14.3054 17.769C14.2889 17.7867 14.2715 17.8036 14.2533 17.8196C14.2349 17.8351 14.2156 17.8497 14.1957 17.8632C14.1762 17.8773 14.156 17.8905 14.1352 17.9026C14.1142 17.9145 14.0926 17.9252 14.0705 17.9349C14.0048 17.9639 13.9351 17.9829 13.8638 17.9912C13.84 17.9938 13.816 17.9952 13.7921 17.9954C13.744 17.9965 13.696 17.9927 13.6486 17.9842C13.5775 17.9706 13.5087 17.9465 13.4447 17.9124C13.4024 17.8902 13.3623 17.8638 13.3252 17.8337C13.3066 17.8182 13.2887 17.8018 13.2718 17.7845C13.255 17.7679 13.239 17.7506 13.224 17.7324C13.2084 17.7135 13.1939 17.6938 13.1804 17.6734C13.1672 17.6534 13.1549 17.6327 13.1438 17.6115C13.0876 17.5049 13.0591 17.386 13.0608 17.2656V15.8256V10.9951V6.46557Z" fill="#333333"/>
</svg>
