<svg width="33" height="33" viewBox="0 0 33 33" fill="none" xmlns="http://www.w3.org/2000/svg">
<path d="M5.08346 0.666629C2.56698 0.666629 0.500129 2.73348 0.500129 5.24996C0.497786 5.4156 0.528388 5.58006 0.590155 5.73377C0.651922 5.88748 0.743623 6.02738 0.859929 6.14534C0.976234 6.2633 1.11482 6.35697 1.26765 6.42091C1.42047 6.48484 1.58447 6.51777 1.75013 6.51777C1.91579 6.51777 2.07979 6.48484 2.23261 6.42091C2.38543 6.35697 2.52402 6.2633 2.64033 6.14534C2.75663 6.02738 2.84834 5.88748 2.9101 5.73377C2.97187 5.58006 3.00247 5.4156 3.00013 5.24996C3.00013 4.08477 3.91827 3.16663 5.08346 3.16663C5.2491 3.16897 5.41356 3.13837 5.56727 3.0766C5.72098 3.01484 5.86088 2.92313 5.97884 2.80683C6.0968 2.69052 6.19047 2.55193 6.25441 2.39911C6.31834 2.24629 6.35126 2.08229 6.35126 1.91663C6.35126 1.75097 6.31834 1.58697 6.25441 1.43415C6.19047 1.28132 6.0968 1.14273 5.97884 1.02643C5.86088 0.910123 5.72098 0.818422 5.56727 0.756655C5.41356 0.694888 5.2491 0.664286 5.08346 0.666629ZM10.0835 0.666629C9.39346 0.666629 8.83346 1.22663 8.83346 1.91663C8.83346 2.60663 9.39346 3.16663 10.0835 3.16663C10.7735 3.16663 11.3335 2.60663 11.3335 1.91663C11.3335 1.22663 10.7735 0.666629 10.0835 0.666629ZM15.0835 0.666629C14.3935 0.666629 13.8335 1.22663 13.8335 1.91663C13.8335 2.60663 14.3935 3.16663 15.0835 3.16663C15.7735 3.16663 16.3335 2.60663 16.3335 1.91663C16.3335 1.22663 15.7735 0.666629 15.0835 0.666629ZM20.0835 0.666629C19.9178 0.664286 19.7534 0.694888 19.5997 0.756655C19.4459 0.818422 19.306 0.910123 19.1881 1.02643C19.0701 1.14273 18.9765 1.28132 18.9125 1.43415C18.8486 1.58697 18.8157 1.75097 18.8157 1.91663C18.8157 2.08229 18.8486 2.24629 18.9125 2.39911C18.9765 2.55193 19.0701 2.69052 19.1881 2.80683C19.306 2.92313 19.4459 3.01484 19.5997 3.0766C19.7534 3.13837 19.9178 3.16897 20.0835 3.16663C21.2487 3.16663 22.1668 4.08477 22.1668 5.24996C22.1645 5.4156 22.1951 5.58006 22.2568 5.73377C22.3186 5.88748 22.4103 6.02738 22.5266 6.14534C22.6429 6.2633 22.7815 6.35697 22.9343 6.42091C23.0871 6.48484 23.2511 6.51777 23.4168 6.51777C23.5825 6.51777 23.7465 6.48484 23.8993 6.42091C24.0521 6.35697 24.1907 6.2633 24.307 6.14534C24.4233 6.02738 24.515 5.88748 24.5768 5.73377C24.6385 5.58006 24.6691 5.4156 24.6668 5.24996C24.6668 2.73348 22.5999 0.666629 20.0835 0.666629ZM12.5835 8.16663C10.067 8.16663 8.00013 10.2335 8.00013 12.75V27.75C8.00013 30.2664 10.067 32.3333 12.5835 32.3333H27.5835C30.0999 32.3333 32.1668 30.2664 32.1668 27.75V12.75C32.1668 10.2335 30.0999 8.16663 27.5835 8.16663H12.5835ZM1.75013 8.99996C1.06013 8.99996 0.500129 9.55996 0.500129 10.25C0.500129 10.94 1.06013 11.5 1.75013 11.5C2.44013 11.5 3.00013 10.94 3.00013 10.25C3.00013 9.55996 2.44013 8.99996 1.75013 8.99996ZM12.5835 10.6666H27.5835C28.7487 10.6666 29.6668 11.5848 29.6668 12.75V27.75C29.6668 28.9151 28.7487 29.8333 27.5835 29.8333H12.5835C11.4183 29.8333 10.5001 28.9151 10.5001 27.75V12.75C10.5001 11.5848 11.4183 10.6666 12.5835 10.6666ZM1.75013 14C1.06013 14 0.500129 14.56 0.500129 15.25C0.500129 15.94 1.06013 16.5 1.75013 16.5C2.44013 16.5 3.00013 15.94 3.00013 15.25C3.00013 14.56 2.44013 14 1.75013 14ZM17.5851 15.6715C17.5178 15.6598 17.4471 15.6676 17.3816 15.6959C17.2516 15.7518 17.1668 15.8814 17.1668 16.0231V23.1683C17.1668 23.3058 17.2453 23.4297 17.3686 23.4889C17.492 23.5489 17.6404 23.5324 17.7479 23.4466L19.2029 22.2812L20.5799 25.4502C20.6582 25.631 20.8678 25.7149 21.0486 25.6357L22.1424 25.1604C22.3232 25.0821 22.4055 24.8709 22.3263 24.6901L21.602 23.0201L20.951 21.5211L22.8357 21.303C22.9741 21.2872 23.0903 21.193 23.1336 21.0605C23.1769 20.9297 23.1409 20.7844 23.0392 20.6894L17.7674 15.7627C17.7153 15.7143 17.6524 15.6832 17.5851 15.6715ZM1.7306 18.9821C1.39936 18.9872 1.08372 19.1237 0.853009 19.3614C0.622296 19.5991 0.495377 19.9187 0.500129 20.25C0.500129 22.7664 2.56698 24.8333 5.08346 24.8333C5.2491 24.8356 5.41356 24.805 5.56727 24.7433C5.72098 24.6815 5.86088 24.5898 5.97884 24.4735C6.0968 24.3572 6.19047 24.2186 6.25441 24.0658C6.31834 23.913 6.35126 23.749 6.35126 23.5833C6.35126 23.4176 6.31834 23.2536 6.25441 23.1008C6.19047 22.948 6.0968 22.8094 5.97884 22.6931C5.86088 22.5768 5.72098 22.4851 5.56727 22.4233C5.41356 22.3616 5.2491 22.331 5.08346 22.3333C3.91827 22.3333 3.00013 21.4152 3.00013 20.25C3.00253 20.0827 2.97132 19.9166 2.90835 19.7616C2.84538 19.6065 2.75193 19.4657 2.63354 19.3475C2.51515 19.2293 2.37423 19.136 2.21912 19.0732C2.06402 19.0104 1.8979 18.9794 1.7306 18.9821Z" fill="#27AE60"/>
</svg>
