<svg width="19" height="21" viewBox="0 0 19 21" fill="none" xmlns="http://www.w3.org/2000/svg">
<path d="M4.39941 0.765625C2.09941 2.46563 0.499023 5.16563 0.499023 8.26562C0.499023 10.7656 1.5998 13.0656 3.2998 14.7656L4.2998 12.9648C3.1998 11.6648 2.49902 10.0656 2.49902 8.26562C2.49902 5.96562 3.69941 3.86641 5.39941 2.56641L4.39941 0.765625ZM14.5986 0.865234L13.5986 2.66602C15.2986 3.86602 16.499 5.96562 16.499 8.26562C16.499 10.0656 15.7982 11.6652 14.6982 12.8652L15.6982 14.666C17.3982 13.066 18.499 10.766 18.499 8.16602C18.499 5.16602 16.8986 2.46523 14.5986 0.865234ZM6.39941 4.36523C5.19941 5.26523 4.49902 6.66563 4.49902 8.26562C4.49902 9.26562 4.7998 10.1648 5.2998 10.9648L6.49902 8.76562V8.26562C6.49902 7.46562 6.79941 6.66602 7.39941 6.16602L6.39941 4.36523ZM12.5986 4.36523L11.5986 6.16602C12.1986 6.66602 12.499 7.46562 12.499 8.26562V8.76562L13.6982 11.0664C14.1982 10.1664 14.499 9.26562 14.499 8.26562C14.499 6.66563 13.7986 5.26523 12.5986 4.36523ZM9.49902 7.26562C9.23381 7.26562 8.97945 7.37098 8.79192 7.55852C8.60438 7.74605 8.49902 8.00041 8.49902 8.26562L5.49902 20.2656H7.49902L9.49902 12.2656L11.499 20.2656H13.499L10.499 8.26562C10.499 8.00041 10.3937 7.74605 10.2061 7.55852C10.0186 7.37098 9.76424 7.26562 9.49902 7.26562Z" fill="#4F4F4F"/>
</svg>
